<?xml version="1.0" standalone="no"?>
<!DOCTYPE svg PUBLIC "-//W3C//DTD SVG 20010904//EN"
 "http://www.w3.org/TR/2001/REC-SVG-20010904/DTD/svg10.dtd">
<svg version="1.0" xmlns="http://www.w3.org/2000/svg"
 width="334.000000pt" height="266.000000pt" viewBox="0 0 334.000000 266.000000"
 preserveAspectRatio="xMidYMid meet">

<g transform="translate(0.000000,266.000000) scale(0.100000,-0.100000)"
fill="#000000" stroke="none">
<path d="M963 2625 c-10 -11 -13 -274 -13 -1245 l0 -1230 -426 0 c-456 0 -454
0 -454 -50 0 -53 -94 -50 1595 -50 1689 0 1595 -3 1595 50 0 52 56 50 -1119
50 l-1091 0 0 950 0 950 235 235 235 235 440 0 440 0 0 -196 c0 -209 3 -224
50 -224 47 0 50 14 50 250 l0 221 -25 24 -24 25 -711 0 c-467 0 -710 3 -710
10 0 15 -53 11 -67 -5z m407 -110 c0 -7 -308 -315 -315 -315 -3 0 -5 72 -5
160 l0 160 160 0 c88 0 160 -2 160 -5z"/>
</g>
</svg>
