<?xml version="1.0" standalone="no"?>
<!DOCTYPE svg PUBLIC "-//W3C//DTD SVG 20010904//EN"
 "http://www.w3.org/TR/2001/REC-SVG-20010904/DTD/svg10.dtd">
<svg version="1.0" xmlns="http://www.w3.org/2000/svg"
 width="322.000000pt" height="274.000000pt" viewBox="0 0 322.000000 274.000000"
 preserveAspectRatio="xMidYMid meet">

<g transform="translate(0.000000,274.000000) scale(0.100000,-0.100000)"
fill="#000000" stroke="none">
<path d="M913 2595 c-10 -11 -13 -274 -13 -1245 l0 -1230 -426 0 c-456 0 -454
0 -454 -50 0 -53 -94 -50 1595 -50 1689 0 1595 -3 1595 50 0 52 56 50 -1119
50 l-1091 0 0 950 0 950 235 235 235 235 440 0 440 0 0 -190 0 -190 -30 0
c-16 0 -30 -4 -30 -10 0 -5 -7 -10 -15 -10 -20 0 -125 -105 -125 -125 0 -8 -4
-15 -10 -15 -5 0 -10 -13 -10 -30 0 -16 -4 -30 -10 -30 -6 0 -10 -30 -10 -70
0 -40 4 -70 10 -70 6 0 10 -13 10 -30 0 -16 5 -30 10 -30 6 0 10 -7 10 -15 0
-20 105 -125 125 -125 8 0 15 -4 15 -10 0 -5 12 -10 26 -10 54 0 54 1 54 -385
0 -382 0 -385 50 -385 50 0 50 3 50 385 0 386 0 385 54 385 14 0 26 5 26 10 0
6 7 10 15 10 20 0 125 105 125 125 0 8 5 15 10 15 6 0 10 14 10 30 0 17 5 30
10 30 6 0 10 30 10 70 0 40 -4 70 -10 70 -5 0 -10 14 -10 30 0 17 -4 30 -10
30 -5 0 -10 7 -10 15 0 20 -105 125 -125 125 -8 0 -15 5 -15 10 0 6 -13 10
-30 10 -16 0 -30 5 -30 10 0 6 -9 10 -20 10 -19 0 -20 7 -20 205 0 205 0 206
-25 230 l-24 25 -711 0 c-467 0 -710 3 -710 10 0 15 -53 11 -67 -5z m407 -110
c0 -7 -308 -315 -315 -315 -3 0 -5 72 -5 160 l0 160 160 0 c88 0 160 -2 160
-5z m1145 -465 c3 -5 16 -10 28 -10 23 0 100 -73 125 -117 16 -29 16 -117 0
-146 -21 -36 -91 -107 -122 -122 -36 -18 -118 -19 -149 -3 -44 25 -117 102
-117 125 0 12 -4 25 -10 28 -5 3 -10 24 -10 45 0 21 5 42 10 45 6 3 10 16 10
28 0 29 88 117 117 117 12 0 25 5 28 10 3 6 24 10 45 10 21 0 42 -4 45 -10z"/>
</g>
</svg>
